<?xml version="1.0" encoding="UTF-8"?>
<!DOCTYPE svg PUBLIC "-//W3C//DTD SVG 1.1//EN" "http://www.w3.org/Graphics/SVG/1.1/DTD/svg11.dtd">
<!-- Creator: CorelDRAW X7 -->
<svg xmlns="http://www.w3.org/2000/svg" xml:space="preserve" width="1.605in" height="1.69024in" version="1.1" style="shape-rendering:geometricPrecision; text-rendering:geometricPrecision; image-rendering:optimizeQuality; fill-rule:evenodd; clip-rule:evenodd"
viewBox="0 0 1950 2054"
 xmlns:xlink="http://www.w3.org/1999/xlink">
 <defs>
  <style type="text/css">
   <![CDATA[
    .str0 {stroke:#9B63BC;stroke-width:67.5132}
    .fil0 {fill:none}
    .fil1 {fill:#9B63BC;fill-rule:nonzero}
   ]]>
  </style>
 </defs>
 <g id="Слой_x0020_1">
  <metadata id="CorelCorpID_0Corel-Layer"/>
  <polyline class="fil0 str0" points="1556,887 1556,34 34,34 34,2020 526,2020 "/>
  <line class="fil0" x1="263" y1="513" x2="1342" y2= "513" />
  <path class="fil1" d="M263 479l1079 0c43,2 47,67 0,67l-1079 0c-35,-3 -38,-65 0,-67z"/>
  <path class="fil1" d="M245 769l753 0c30,2 33,66 0,67l-753 0c-24,-3 -26,-65 0,-67z"/>
  <path class="fil1" d="M266 1028l414 0c40,1 49,65 0,68l-414 0c-44,-4 -43,-66 0,-68z"/>
  <path class="fil1" d="M250 1303l215 0c37,1 46,65 0,67l-215 0c-47,-3 -48,-65 0,-67z"/>
  <circle class="fil0 str0" cx="1296" cy="1255" r="334"/>
  <path class="fil0 str0" d="M1917 1998c0,-225 -247,-388 -602,-388 -355,0 -610,198 -610,388l1212 0z"/>
 </g>
</svg>
