<?xml version="1.0" encoding="UTF-8"?>
<!DOCTYPE svg PUBLIC "-//W3C//DTD SVG 1.1//EN" "http://www.w3.org/Graphics/SVG/1.1/DTD/svg11.dtd">
<!-- Creator: CorelDRAW X7 -->
<svg xmlns="http://www.w3.org/2000/svg" xml:space="preserve" width="40.8076mm" height="44.3714mm" version="1.1" style="shape-rendering:geometricPrecision; text-rendering:geometricPrecision; image-rendering:optimizeQuality; fill-rule:evenodd; clip-rule:evenodd"
viewBox="0 0 975 1060"
 xmlns:xlink="http://www.w3.org/1999/xlink">
 <defs>
  <style type="text/css">
   <![CDATA[
    .str0 {stroke:#11181C;stroke-width:33.7224}
    .fil0 {fill:none}
    .fil1 {fill:#11181C;fill-rule:nonzero}
   ]]>
  </style>
 </defs>
 <g id="Слой_x0020_1">
  <metadata id="CorelCorpID_0Corel-Layer"/>
  <polyline class="fil0 str0" points="707,370 707,17 17,17 17,839 240,839 "/>
  <line class="fil0" x1="121" y1="201" x2="610" y2= "201" />
  <path class="fil1" d="M121 184l489 0c19,1 21,34 0,34l-489 0c-16,-2 -18,-33 0,-34z"/>
  <path class="fil1" d="M113 329l341 0c13,1 15,33 0,34l-341 0c-12,-2 -12,-33 0,-34z"/>
  <path class="fil1" d="M122 459l188 0c18,0 22,32 0,33l-188 0c-20,-1 -19,-32 0,-33z"/>
  <path class="fil1" d="M115 596l97 0c17,0 21,32 0,33l-97 0c-21,-1 -22,-32 0,-33z"/>
  <circle class="fil0 str0" cx="656" cy="672" r="167"/>
  <path class="fil0 str0" d="M958 1044c0,-113 -123,-194 -300,-194 -178,0 -305,99 -305,194l605 0z"/>
 </g>
</svg>
