<?xml version="1.0" encoding="UTF-8"?>
<!DOCTYPE svg PUBLIC "-//W3C//DTD SVG 1.1//EN" "http://www.w3.org/Graphics/SVG/1.1/DTD/svg11.dtd">
<!-- Creator: CorelDRAW X7 -->
<svg xmlns="http://www.w3.org/2000/svg" xml:space="preserve" width="14.9298mm" height="14.6863mm" version="1.1" style="shape-rendering:geometricPrecision; text-rendering:geometricPrecision; image-rendering:optimizeQuality; fill-rule:evenodd; clip-rule:evenodd"
viewBox="0 0 240 236"
 xmlns:xlink="http://www.w3.org/1999/xlink">
 <defs>
  <style type="text/css">
   <![CDATA[
    .fil0 {fill:url(#id0)}
    .fil1 {fill:url(#id1)}
    .fil2 {fill:url(#id2)}
   ]]>
  </style>
  <linearGradient id="id0" gradientUnits="userSpaceOnUse" x1="214.673" y1="169.749" x2="75.6666" y2="212.495">
   <stop offset="0" style="stop-opacity:1; stop-color:#4919EE"/>
   <stop offset="1" style="stop-opacity:1; stop-color:#00ECFF"/>
  </linearGradient>
  <linearGradient id="id1" gradientUnits="userSpaceOnUse" xlink:href="#id0" x1="76.3576" y1="162.624" x2="144.313" y2="49.0309">
  </linearGradient>
  <linearGradient id="id2" gradientUnits="userSpaceOnUse" xlink:href="#id0" x1="219.812" y1="63.8642" x2="255.353" y2="31.4301">
  </linearGradient>
 </defs>
 <g id="Слой_x0020_1">
  <metadata id="CorelCorpID_0Corel-Layer"/>
  <path class="fil0" d="M37 192c-15,0 -37,15 -37,44l160 0c55,0 83,-54 80,-108 -19,-64 -111,-70 -140,-18 41,-41 97,-12 96,29 1,32 -25,52 -50,53l-109 0z"/>
  <path class="fil1" d="M238 121c-7,-25 -22,-45 -38,-57 -1,0 -2,-1 -2,-1 -16,-10 -37,-15 -54,-14 -73,3 -120,80 -77,143l63 0c-22,-6 -38,-27 -38,-49 -2,-74 109,-98 146,-22z"/>
  <path class="fil2" d="M240 0c-32,3 -39,17 -41,44l1 20c16,12 33,32 40,64l0 -128z"/>
 </g>
</svg>
