<?xml version="1.0" encoding="UTF-8"?>
<!DOCTYPE svg PUBLIC "-//W3C//DTD SVG 1.1//EN" "http://www.w3.org/Graphics/SVG/1.1/DTD/svg11.dtd">
<!-- Creator: CorelDRAW X7 -->
<svg xmlns="http://www.w3.org/2000/svg" xml:space="preserve" width="14.6863mm" height="14.9298mm" version="1.1" style="shape-rendering:geometricPrecision; text-rendering:geometricPrecision; image-rendering:optimizeQuality; fill-rule:evenodd; clip-rule:evenodd"
viewBox="0 0 242 246"
 xmlns:xlink="http://www.w3.org/1999/xlink">
 <defs>
  <style type="text/css">
   <![CDATA[
    .fil2 {fill:url(#id0)}
    .fil1 {fill:url(#id1)}
    .fil0 {fill:url(#id2)}
   ]]>
  </style>
  <linearGradient id="id0" gradientUnits="userSpaceOnUse" x1="176.213" y1="224.725" x2="209.371" y2="261.062">
   <stop offset="0" style="stop-opacity:1; stop-color:#FF9578"/>
   <stop offset="1" style="stop-opacity:1; stop-color:#FFDE7F"/>
  </linearGradient>
  <linearGradient id="id1" gradientUnits="userSpaceOnUse" xlink:href="#id0" x1="75.2438" y1="78.064" x2="191.378" y2="147.541">
  </linearGradient>
  <linearGradient id="id2" gradientUnits="userSpaceOnUse" x1="67.959" y1="219.471" x2="24.2569" y2="77.3569">
   <stop offset="0" style="stop-opacity:1; stop-color:#FF9A79"/>
   <stop offset="1" style="stop-opacity:1; stop-color:#FFDE7F"/>
  </linearGradient>
 </defs>
 <g id="Слой_x0020_1">
  <metadata id="CorelCorpID_0Corel-Layer"/>
  <path class="fil0" d="M46 38c0,-15 -16,-38 -46,-38l0 164c0,56 55,84 111,81 65,-19 71,-113 18,-143 42,42 12,99 -30,99 -32,0 -52,-27 -53,-51l0 -112z"/>
  <path class="fil1" d="M118 244c26,-8 46,-23 58,-40 0,-1 1,-1 1,-2 11,-16 15,-38 14,-54 -2,-75 -81,-123 -145,-80l0 64c6,-21 27,-38 49,-38 76,-2 100,112 23,150z"/>
  <path class="fil2" d="M242 246c-3,-34 -18,-41 -45,-42l-21 0c-12,17 -33,34 -65,41l131 1z"/>
 </g>
</svg>
