<?xml version="1.0" encoding="UTF-8"?>
<!DOCTYPE svg PUBLIC "-//W3C//DTD SVG 1.1//EN" "http://www.w3.org/Graphics/SVG/1.1/DTD/svg11.dtd">
<!-- Creator: CorelDRAW X7 -->
<svg xmlns="http://www.w3.org/2000/svg" xml:space="preserve" width="20.9416mm" height="11.9355mm" version="1.1" style="shape-rendering:geometricPrecision; text-rendering:geometricPrecision; image-rendering:optimizeQuality; fill-rule:evenodd; clip-rule:evenodd"
viewBox="0 0 459 262"
 xmlns:xlink="http://www.w3.org/1999/xlink">
 <defs>
  <style type="text/css">
   <![CDATA[
    .fil1 {fill:url(#id0)}
    .fil2 {fill:url(#id1)}
    .fil0 {fill:url(#id2)}
   ]]>
  </style>
  <linearGradient id="id0" gradientUnits="userSpaceOnUse" x1="314.444" y1="180.632" x2="139.548" y2="224.597">
   <stop offset="0" style="stop-opacity:1; stop-color:#691883"/>
   <stop offset="1" style="stop-opacity:1; stop-color:#F20B97"/>
  </linearGradient>
  <linearGradient id="id1" gradientUnits="userSpaceOnUse" xlink:href="#id0" x1="81.1059" y1="137.576" x2="15.6218" y2="134.583">
  </linearGradient>
  <linearGradient id="id2" gradientUnits="userSpaceOnUse" xlink:href="#id0" x1="188.061" y1="40.5219" x2="363.153" y2="133.254">
  </linearGradient>
 </defs>
 <g id="Слой_x0020_1">
  <metadata id="CorelCorpID_0Corel-Layer"/>
  <path class="fil0" d="M380 191c14,14 51,20 79,-8l-154 -154c-54,-53 -132,-28 -182,28 -43,80 40,174 118,152 -78,0 -105,-82 -65,-122 30,-30 75,-24 99,-2l105 106z"/>
  <path class="fil1" d="M119 64c-18,32 -23,65 -18,93 0,1 0,2 0,3 6,25 22,50 39,65 73,68 192,39 211,-63l-60 -61c15,27 11,62 -10,84 -70,72 -200,-12 -162,-121z"/>
  <path class="fil2" d="M0 180c34,28 54,21 82,-4l19 -19c-5,-27 -1,-64 22,-100l-123 123z"/>
 </g>
</svg>
