<?xml version="1.0" encoding="UTF-8"?>
<!DOCTYPE svg PUBLIC "-//W3C//DTD SVG 1.1//EN" "http://www.w3.org/Graphics/SVG/1.1/DTD/svg11.dtd">
<!-- Creator: CorelDRAW X7 -->
<svg xmlns="http://www.w3.org/2000/svg" xml:space="preserve" width="20.9416mm" height="11.9353mm" version="1.1" style="shape-rendering:geometricPrecision; text-rendering:geometricPrecision; image-rendering:optimizeQuality; fill-rule:evenodd; clip-rule:evenodd"
viewBox="0 0 459 262"
 xmlns:xlink="http://www.w3.org/1999/xlink">
 <defs>
  <style type="text/css">
   <![CDATA[
    .fil2 {fill:url(#id0)}
    .fil1 {fill:url(#id1)}
    .fil0 {fill:url(#id2)}
   ]]>
  </style>
  <linearGradient id="id0" gradientUnits="userSpaceOnUse" x1="377.797" y1="123.97" x2="443.281" y2="126.963">
   <stop offset="0" style="stop-opacity:1; stop-color:#691883"/>
   <stop offset="1" style="stop-opacity:1; stop-color:#FBEEFF"/>
  </linearGradient>
  <linearGradient id="id1" gradientUnits="userSpaceOnUse" xlink:href="#id0" x1="144.459" y1="80.9141" x2="319.355" y2="36.9488">
  </linearGradient>
  <linearGradient id="id2" gradientUnits="userSpaceOnUse" xlink:href="#id0" x1="270.842" y1="221.024" x2="95.7498" y2="128.292">
  </linearGradient>
 </defs>
 <g id="Слой_x0020_1">
  <metadata id="CorelCorpID_0Corel-Layer"/>
  <path class="fil0" d="M79 71c-15,-14 -51,-21 -79,7l154 154c54,53 132,28 182,-27 43,-80 -40,-174 -118,-152 78,0 105,82 64,121 -29,31 -74,25 -98,2l-105 -105z"/>
  <path class="fil1" d="M340 197c18,-32 23,-65 18,-92 0,-1 0,-2 -1,-3 -5,-25 -21,-50 -38,-65 -73,-68 -192,-39 -212,63l61 60c-15,-26 -11,-61 10,-83 70,-73 200,11 162,120z"/>
  <path class="fil2" d="M459 82c-34,-29 -54,-22 -82,3l-19 20c5,27 1,63 -22,100l123 -123z"/>
 </g>
</svg>
