<?xml version="1.0" encoding="UTF-8"?>
<!DOCTYPE svg PUBLIC "-//W3C//DTD SVG 1.1//EN" "http://www.w3.org/Graphics/SVG/1.1/DTD/svg11.dtd">
<!-- Creator: CorelDRAW X7 -->
<svg xmlns="http://www.w3.org/2000/svg" xml:space="preserve" width="11.7789mm" height="11.6248mm" version="1.1" style="shape-rendering:geometricPrecision; text-rendering:geometricPrecision; image-rendering:optimizeQuality; fill-rule:evenodd; clip-rule:evenodd"
viewBox="0 0 316 312"
 xmlns:xlink="http://www.w3.org/1999/xlink">
 <defs>
  <style type="text/css">
   <![CDATA[
    .fil1 {fill:url(#id0)}
    .fil0 {fill:url(#id1)}
    .fil2 {fill:url(#id2)}
   ]]>
  </style>
  <linearGradient id="id0" gradientUnits="userSpaceOnUse" x1="229.657" y1="265.777" x2="306.274" y2="216.58">
   <stop offset="0" style="stop-opacity:1; stop-color:#4D0EED"/>
   <stop offset="1" style="stop-opacity:1; stop-color:#EBD2DE"/>
  </linearGradient>
  <linearGradient id="id1" gradientUnits="userSpaceOnUse" x1="149.071" y1="229.885" x2="172.758" y2="-31.6763">
   <stop offset="0" style="stop-opacity:1; stop-color:#4D0EED"/>
   <stop offset="1" style="stop-opacity:1; stop-color:white"/>
  </linearGradient>
  <linearGradient id="id2" gradientUnits="userSpaceOnUse" xlink:href="#id0" x1="89.8492" y1="267.786" x2="11.5178" y2="214.571">
  </linearGradient>
 </defs>
 <g id="Слой_x0020_1">
  <metadata id="CorelCorpID_0Corel-Layer"/>
  <path class="fil0" d="M202 223c94,-8 122,-74 104,-130 -20,-60 -73,-93 -144,-93 -77,0 -137,47 -151,93 -25,77 33,124 108,131 -46,-46 -47,-145 44,-146 86,-1 100,98 39,145z"/>
  <path class="fil1" d="M208 221c-16,2 -33,19 -36,35 -5,13 -6,44 -3,56 72,1 174,-76 140,-207 9,67 -32,110 -101,116z"/>
  <path class="fil2" d="M115 221c17,2 34,19 38,35 5,13 6,44 2,56 -76,1 -184,-76 -148,-207 -9,67 34,110 108,116z"/>
 </g>
</svg>
