<?xml version="1.0" encoding="UTF-8"?>
<!DOCTYPE svg PUBLIC "-//W3C//DTD SVG 1.1//EN" "http://www.w3.org/Graphics/SVG/1.1/DTD/svg11.dtd">
<!-- Creator: CorelDRAW X7 -->
<svg xmlns="http://www.w3.org/2000/svg" xml:space="preserve" width="11.7789mm" height="11.6248mm" version="1.1" style="shape-rendering:geometricPrecision; text-rendering:geometricPrecision; image-rendering:optimizeQuality; fill-rule:evenodd; clip-rule:evenodd"
viewBox="0 0 759 749"
 xmlns:xlink="http://www.w3.org/1999/xlink">
 <defs>
  <style type="text/css">
   <![CDATA[
    .fil1 {fill:url(#id0)}
    .fil0 {fill:url(#id1)}
    .fil2 {fill:url(#id2)}
   ]]>
  </style>
  <linearGradient id="id0" gradientUnits="userSpaceOnUse" x1="552.141" y1="638.982" x2="736.345" y2="520.701">
   <stop offset="0" style="stop-opacity:1; stop-color:#E82184"/>
   <stop offset="1" style="stop-opacity:1; stop-color:#EBD2DE"/>
  </linearGradient>
  <linearGradient id="id1" gradientUnits="userSpaceOnUse" x1="358.396" y1="552.69" x2="415.345" y2="-76.1562">
   <stop offset="0" style="stop-opacity:1; stop-color:#E60E7A"/>
   <stop offset="1" style="stop-opacity:1; stop-color:white"/>
  </linearGradient>
  <linearGradient id="id2" gradientUnits="userSpaceOnUse" x1="216.016" y1="643.811" x2="27.691" y2="515.872">
   <stop offset="0" style="stop-opacity:1; stop-color:#E71B81"/>
   <stop offset="1" style="stop-opacity:1; stop-color:#EBD2DE"/>
  </linearGradient>
 </defs>
 <g id="Слой_x0020_1">
  <metadata id="CorelCorpID_0Corel-Layer"/>
  <path class="fil0" d="M485 535c228,-18 295,-176 250,-312 -47,-145 -174,-224 -345,-223 -187,1 -329,113 -365,223 -59,185 80,298 261,315 -110,-111 -112,-349 105,-351 207,-2 241,237 94,348z"/>
  <path class="fil1" d="M499 532c-39,5 -79,45 -86,85 -12,29 -14,105 -7,132 173,5 419,-182 337,-497 21,161 -77,266 -244,280z"/>
  <path class="fil2" d="M275 532c41,5 84,45 92,85 12,29 14,105 7,132 -184,5 -444,-182 -357,-497 -21,161 82,266 258,280z"/>
 </g>
</svg>
