<?xml version="1.0" encoding="UTF-8"?>
<!DOCTYPE svg PUBLIC "-//W3C//DTD SVG 1.1//EN" "http://www.w3.org/Graphics/SVG/1.1/DTD/svg11.dtd">
<!-- Creator: CorelDRAW X7 -->
<svg xmlns="http://www.w3.org/2000/svg" xml:space="preserve" width="2.056in" height="1.78191in" version="1.1" style="shape-rendering:geometricPrecision; text-rendering:geometricPrecision; image-rendering:optimizeQuality; fill-rule:evenodd; clip-rule:evenodd"
viewBox="0 0 604 524"
 xmlns:xlink="http://www.w3.org/1999/xlink">
 <defs>
  <style type="text/css">
   <![CDATA[
    .str0 {stroke:#9B63BC;stroke-width:16.3214}
    .str1 {stroke:#9B63BC;stroke-width:0.881361}
    .fil0 {fill:none}
    .fil1 {fill:#373435;fill-rule:nonzero}
   ]]>
  </style>
 </defs>
 <g id="Слой_x0020_1">
  <metadata id="CorelCorpID_0Corel-Layer"/>
  <circle class="fil0 str0" cx="262" cy="262" r="78"/>
  <circle class="fil0 str0" cx="262" cy="262" r="135"/>
  <circle class="fil0 str0" cx="262" cy="262" r="193"/>
  <circle class="fil0 str0" cx="262" cy="262" r="254"/>
  <g id="_850931728">
   <path class="fil1 str1" d="M547 60l-278 202c-3,1 -5,-1 -2,-3l278 -203c2,-1 4,1 2,4z"/>
   <path class="fil1 str1" d="M532 66l11 -31 1 -1 34 -25c1,-1 3,0 3,1l1 22 20 8c1,1 2,3 1,4l-34 24 -1 0 -34 0 -2 0 0 -2zm15 -29l-10 27 30 0 31 -21 -19 -7 -1 -1 0 -1 -1 -20 -30 23z"/>
  </g>
 </g>
</svg>
