<?xml version="1.0" encoding="UTF-8"?>
<!DOCTYPE svg PUBLIC "-//W3C//DTD SVG 1.1//EN" "http://www.w3.org/Graphics/SVG/1.1/DTD/svg11.dtd">
<!-- Creator: CorelDRAW X7 -->
<svg xmlns="http://www.w3.org/2000/svg" xml:space="preserve" width="48.7045mm" height="44.6804mm" version="1.1" style="shape-rendering:geometricPrecision; text-rendering:geometricPrecision; image-rendering:optimizeQuality; fill-rule:evenodd; clip-rule:evenodd"
viewBox="0 0 527 483"
 xmlns:xlink="http://www.w3.org/1999/xlink">
 <defs>
  <style type="text/css">
   <![CDATA[
    .str0 {stroke:#11181C;stroke-width:15.2683}
    .str1 {stroke:#11181C;stroke-width:5.72493}
    .fil0 {fill:none}
    .fil2 {fill:#11181C}
    .fil1 {fill:#11181C;fill-rule:nonzero}
   ]]>
  </style>
 </defs>
 <g id="Слой_x0020_1">
  <metadata id="CorelCorpID_0Corel-Layer"/>
  <g id="_3243753567024">
   <circle class="fil0 str0" cx="214" cy="173" r="78"/>
   <path class="fil0 str0" d="M356 347c0,-52 -58,-91 -141,-91 -83,0 -143,47 -143,91l284 0z"/>
   <polyline class="fil0 str0" points="259,39 8,39 8,415 427,415 427,161 "/>
   <line class="fil0 str0" x1="218" y1="422" x2="218" y2= "470" />
   <path class="fil1" d="M19 466c131,0 261,0 392,0 12,0 12,17 0,17 -131,0 -261,0 -392,0 -11,0 -12,-17 0,-17z"/>
   <path class="fil2 str1" d="M327 11c20,0 40,0 61,0 73,0 68,-7 68,23l0 62c-1,15 0,16 -14,16 -21,1 -41,1 -62,0 -76,0 -68,7 -68,-23 0,-10 0,-21 0,-31 0,-45 -5,-46 15,-47zm189 86l-1 9 -13 -6 -37 -16 0 -45 50 -21 1 79zm-213 -77l0 5 0 6 0 5 0 6 0 5 0 6 0 5 0 6 0 5 0 6 0 5 0 6 0 5 0 6c1,10 0,15 6,20 6,5 13,4 22,4 18,0 36,-1 53,0 18,0 36,0 53,0 11,0 16,1 22,-5 7,-7 5,-11 5,-21 8,-1 54,25 59,21 2,-2 1,-17 1,-24l0 -7 0 -4 0 -7 0 -4 0 -7 0 -4 0 -7 0 -5 0 -6 0 -5 0 -6 0 -5 0 -6 0 -5 0 -3c0,-3 -1,-4 -3,-4 -10,1 -51,20 -57,22 0,-13 2,-25 -18,-26l-4 0 -7 0 -4 0 -7 0 -4 0 -7 0 -5 0 -6 0 -5 0 -6 0 -5 0 -6 0 -5 0 -6 0 -5 0 -6 0 -5 0 -6 0 -5 0 -6 0 -5 0 -6 0 -5 0c-10,0 -16,6 -17,17z"/>
  </g>
 </g>
</svg>
