<?xml version="1.0" encoding="UTF-8"?>
<!DOCTYPE svg PUBLIC "-//W3C//DTD SVG 1.1//EN" "http://www.w3.org/Graphics/SVG/1.1/DTD/svg11.dtd">
<!-- Creator: CorelDRAW X7 -->
<svg xmlns="http://www.w3.org/2000/svg" xml:space="preserve" width="2.01585in" height="1.78505in" version="1.1" style="shape-rendering:geometricPrecision; text-rendering:geometricPrecision; image-rendering:optimizeQuality; fill-rule:evenodd; clip-rule:evenodd"
viewBox="0 0 573 508"
 xmlns:xlink="http://www.w3.org/1999/xlink">
 <defs>
  <style type="text/css">
   <![CDATA[
    .str0 {stroke:#9B63BC;stroke-width:15.7949}
    .fil0 {fill:none}
    .fil1 {fill:#FEFEFE}
    .fil2 {fill:#9B63BC;fill-rule:nonzero}
   ]]>
  </style>
 </defs>
 <g id="Слой_x0020_1">
  <metadata id="CorelCorpID_0Corel-Layer"/>
  <path class="fil0 str0" d="M446 192l0 -72c0,-11 -3,-21 -17,-23l-128 0c-12,0 -19,7 -19,16l0 79c0,9 7,18 17,18l82 0c1,0 25,20 35,29 4,3 4,1 4,-3l0 -26c16,0 24,-4 26,-18z"/>
  <g id="_863282128">
   <circle class="fil0 str0" cx="147" cy="325" r="78"/>
   <path class="fil0 str0" d="M292 500c0,-53 -58,-92 -141,-92 -83,0 -143,47 -143,92l284 0z"/>
   <circle class="fil0 str0" cx="458" cy="371" r="58"/>
   <path class="fil0 str0" d="M565 500c0,-39 -43,-68 -104,-68 -61,0 -105,35 -105,68l209 0z"/>
  </g>
  <path class="fil1 str0" d="M186 139l0 -100c0,-14 5,-29 23,-31l177 0c17,0 27,9 27,22l0 109c0,13 -10,24 -23,24l-115 0c-1,0 -35,29 -48,41 -5,4 -6,1 -6,-4l0 -36c-22,-1 -33,-6 -35,-25z"/>
  <path class="fil2" d="M236 52l126 0c12,1 14,16 0,16l-126 0c-13,-1 -12,-15 0,-16z"/>
  <path class="fil2" d="M235 96l105 0c11,0 13,15 0,16l-105 0c-11,-1 -11,-16 0,-16z"/>
 </g>
</svg>
