<?xml version="1.0" encoding="UTF-8"?>
<!DOCTYPE svg PUBLIC "-//W3C//DTD SVG 1.1//EN" "http://www.w3.org/Graphics/SVG/1.1/DTD/svg11.dtd">
<!-- Creator: CorelDRAW X7 -->
<svg xmlns="http://www.w3.org/2000/svg" xml:space="preserve" width="50.5026mm" height="44.4403mm" version="1.1" style="shape-rendering:geometricPrecision; text-rendering:geometricPrecision; image-rendering:optimizeQuality; fill-rule:evenodd; clip-rule:evenodd"
viewBox="0 0 439 386"
 xmlns:xlink="http://www.w3.org/1999/xlink">
 <defs>
  <style type="text/css">
   <![CDATA[
    .str0 {stroke:#11181C;stroke-width:12.2549}
    .fil0 {fill:none}
    .fil1 {fill:#11181C;fill-rule:nonzero}
   ]]>
  </style>
 </defs>
 <g id="Слой_x0020_1">
  <metadata id="CorelCorpID_0Corel-Layer"/>
  <path class="fil0 str0" d="M222 138l0 31c0,8 6,15 14,15l71 0c1,0 21,18 29,25 4,3 4,1 4,-2l0 -22c13,-1 20,-5 22,-16l0 -61c0,-10 -3,-19 -14,-20l-12 0"/>
  <circle class="fil0 str0" cx="116" cy="244" r="61"/>
  <path class="fil0 str0" d="M227 380c0,-41 -45,-71 -110,-71 -64,0 -111,36 -111,71l221 0z"/>
  <circle class="fil0 str0" cx="351" cy="280" r="45"/>
  <path class="fil0 str0" d="M432 380c0,-30 -33,-52 -80,-52 -48,0 -82,26 -82,52l162 0z"/>
  <path class="fil0 str0" d="M140 118l0 -85c0,-13 4,-25 19,-27l152 0c14,0 23,8 23,19l0 93c-1,11 -8,21 -20,21l-98 0c-1,0 -29,24 -41,34 -4,4 -5,1 -5,-3l0 -30c-19,-1 -28,-6 -30,-22z"/>
  <path class="fil1" d="M183 44l107 0c10,0 12,13 0,14l-107 0c-11,-1 -11,-13 0,-14z"/>
  <path class="fil1" d="M182 81l90 0c9,0 10,13 0,14l-90 0c-10,-1 -10,-13 0,-14z"/>
 </g>
</svg>
