<?xml version="1.0" encoding="UTF-8"?>
<!DOCTYPE svg PUBLIC "-//W3C//DTD SVG 1.1//EN" "http://www.w3.org/Graphics/SVG/1.1/DTD/svg11.dtd">
<!-- Creator: CorelDRAW X7 -->
<svg xmlns="http://www.w3.org/2000/svg" xml:space="preserve" width="48.6271mm" height="45.3441mm" version="1.1" style="shape-rendering:geometricPrecision; text-rendering:geometricPrecision; image-rendering:optimizeQuality; fill-rule:evenodd; clip-rule:evenodd"
viewBox="0 0 559 521"
 xmlns:xlink="http://www.w3.org/1999/xlink">
 <defs>
  <style type="text/css">
   <![CDATA[
    .str0 {stroke:#11181C;stroke-width:16.2284}
    .str2 {stroke:#11181C;stroke-width:6.08492}
    .str1 {stroke:black;stroke-width:0.876338}
    .fil0 {fill:none}
    .fil2 {fill:black}
    .fil1 {fill:#11181C}
   ]]>
  </style>
 </defs>
 <g id="Слой_x0020_1">
  <metadata id="CorelCorpID_0Corel-Layer"/>
  <g id="_3243753898688">
   <circle class="fil0 str0" cx="131" cy="363" r="68"/>
   <path class="fil0 str0" d="M253 513c0,-45 -50,-78 -121,-78 -72,0 -124,40 -124,78l245 0z"/>
   <g>
    <path class="fil1 str1" d="M279 260c-21,0 -37,-3 -54,-11 -34,-15 -57,-43 -68,-79 -8,-27 -4,-59 8,-83 4,-7 7,-13 12,-19 4,-6 9,-10 14,-16 28,-28 72,-40 113,-30 34,7 61,28 79,57l5 10c15,31 14,69 1,99 -9,19 -24,37 -41,49 -20,14 -44,23 -69,23zm-7 17c29,0 47,-4 70,-15l13 -8c11,-7 21,-16 29,-26 29,-34 39,-75 30,-120 -5,-20 -14,-37 -26,-53 -3,-4 -13,-15 -16,-18 -5,-4 -7,-6 -15,-11 -10,-7 -23,-14 -35,-18 -14,-4 -31,-8 -46,-8 -34,0 -64,12 -89,32l-7 6c-2,1 -2,1 -3,2 -4,3 -13,15 -16,19 -9,12 -19,32 -22,48 -1,4 -2,9 -3,14 -1,5 0,11 -1,17 -1,5 2,24 3,30 4,18 12,34 21,48 13,19 31,34 51,45 2,1 3,2 6,3 9,5 14,6 25,9 9,3 20,4 31,4z"/>
    <path class="fil2 str2" d="M337 144l-62 0c0,-32 0,-62 0,-94 0,-4 0,-6 -2,-6 -3,0 -2,3 -2,9 0,30 0,59 -1,89 0,5 1,4 8,4l59 1c5,0 5,-4 0,-3z"/>
   </g>
   <circle class="fil0 str0" cx="428" cy="363" r="68"/>
   <path class="fil0 str0" d="M551 513c0,-45 -50,-78 -122,-78 -72,0 -123,40 -123,78l245 0z"/>
  </g>
 </g>
</svg>
