<?xml version="1.0" encoding="UTF-8"?>
<!DOCTYPE svg PUBLIC "-//W3C//DTD SVG 1.1//EN" "http://www.w3.org/Graphics/SVG/1.1/DTD/svg11.dtd">
<!-- Creator: CorelDRAW X7 -->
<svg xmlns="http://www.w3.org/2000/svg" xml:space="preserve" width="2.20681in" height="1.76888in" version="1.1" style="shape-rendering:geometricPrecision; text-rendering:geometricPrecision; image-rendering:optimizeQuality; fill-rule:evenodd; clip-rule:evenodd"
viewBox="0 0 5550 4449"
 xmlns:xlink="http://www.w3.org/1999/xlink">
 <defs>
  <style type="text/css">
   <![CDATA[
    .str1 {stroke:#9B63BC;stroke-width:139.72}
    .str0 {stroke:#9B63BC;stroke-width:52.3889}
    .fil1 {fill:none}
    .fil0 {fill:#9B62BC}
   ]]>
  </style>
 </defs>
 <g id="Слой_x0020_1">
  <metadata id="CorelCorpID_0Corel-Layer"/>
  <path class="fil0" d="M2767 2218c-186,0 -316,-27 -461,-92 -295,-131 -494,-369 -584,-676 -68,-231 -33,-507 71,-713 29,-58 57,-107 95,-157 41,-53 77,-90 123,-136 244,-244 620,-343 965,-264 293,67 526,241 678,492l44 87c130,263 121,586 5,846 -74,166 -202,318 -352,422 -166,115 -375,191 -584,191zm-61 151c246,0 399,-36 595,-134l111 -66c94,-63 179,-137 252,-223 243,-289 335,-643 252,-1024 -38,-170 -115,-316 -216,-453 -25,-33 -111,-131 -143,-155 -42,-32 -60,-53 -125,-98 -83,-58 -197,-116 -296,-150 -121,-40 -266,-66 -400,-66 -291,0 -545,101 -762,271l-59 52c-11,10 -13,9 -23,18 -33,27 -113,129 -135,158 -80,105 -161,275 -189,408 -9,43 -17,79 -24,124 -8,47 -3,96 -10,142 -8,51 16,206 27,260 30,152 96,289 179,414 108,164 260,290 432,383 20,11 30,15 51,25 84,38 124,55 219,79 78,19 168,35 264,35z"/>
  <path class="fil0 str0" d="M3262 1226l-533 -1c0,-268 4,-531 -1,-800 0,-39 2,-51 -17,-51 -22,0 -18,22 -18,72 0,258 5,508 -2,768 -2,40 3,35 62,35l505 1c50,3 46,-27 4,-24z"/>
  <g id="_804778080">
   <circle class="fil1 str1" cx="1296" cy="2835" r="693"/>
   <path class="fil1 str1" d="M2585 4379c0,-467 -513,-806 -1250,-806 -736,0 -1265,411 -1265,806l2515 0z"/>
  </g>
  <g id="_804766208">
   <circle class="fil1 str1" cx="4192" cy="2835" r="693"/>
   <path class="fil1 str1" d="M5480 4379c0,-467 -513,-806 -1249,-806 -737,0 -1266,411 -1266,806l2515 0z"/>
  </g>
 </g>
</svg>
