<?xml version="1.0" encoding="UTF-8"?>
<!DOCTYPE svg PUBLIC "-//W3C//DTD SVG 1.1//EN" "http://www.w3.org/Graphics/SVG/1.1/DTD/svg11.dtd">
<!-- Creator: CorelDRAW X7 -->
<svg xmlns="http://www.w3.org/2000/svg" xml:space="preserve" width="46.238mm" height="24.7069mm" version="1.1" style="shape-rendering:geometricPrecision; text-rendering:geometricPrecision; image-rendering:optimizeQuality; fill-rule:evenodd; clip-rule:evenodd"
viewBox="0 0 2165 1157"
 xmlns:xlink="http://www.w3.org/1999/xlink">
 <defs>
  <style type="text/css">
   <![CDATA[
    .str0 {stroke:black;stroke-width:3.56765}
    .fil0 {fill:#11181C}
   ]]>
  </style>
 </defs>
 <g id="Слой_x0020_1">
  <metadata id="CorelCorpID_0Corel-Layer"/>
  <path class="fil0 str0" d="M236 83c196,-3 395,-1 591,-1 723,1 668,-67 669,228l-2 602c-2,145 4,161 -134,162 -201,0 -402,1 -602,0 -743,-5 -673,65 -672,-230 0,-101 -1,-202 -1,-302 4,-440 -46,-455 151,-459zm1843 840l-5 87 -127 -56 -367 -157 2 -440 497 -209 0 775zm-2075 -755l-1 45 -1 63 0 46 0 62 0 46 0 62 0 46 0 62 0 44 0 64 0 44 0 64 1 44 0 64c3,94 -3,145 56,193 61,51 126,35 220,36 173,1 345,-1 517,0 173,0 345,0 518,0 101,-1 151,18 213,-43 67,-66 45,-107 52,-211 75,-8 522,246 570,208 20,-14 13,-169 13,-237l0 -64 0 -44 0 -64 0 -44 0 -62 0 -46 0 -62 0 -46 0 -62 0 -46 0 -63 0 -45 0 -63 0 -45 0 -35c1,-27 -10,-41 -30,-39 -97,14 -498,199 -553,216 -1,-129 18,-243 -177,-253l-46 0 -62 0 -46 -1 -62 0 -46 0 -62 0 -46 0 -62 0 -47 0 -60 0 -48 0 -61 0 -47 0 -61 0 -47 0 -61 0 -47 0 -61 0 -47 0 -61 0 -46 0 -63 2 -45 1c-103,1 -161,59 -164,163z"/>
 </g>
</svg>
