<?xml version="1.0" encoding="UTF-8"?>
<!DOCTYPE svg PUBLIC "-//W3C//DTD SVG 1.1//EN" "http://www.w3.org/Graphics/SVG/1.1/DTD/svg11.dtd">
<!-- Creator: CorelDRAW X7 -->
<svg xmlns="http://www.w3.org/2000/svg" xml:space="preserve" width="1.8174in" height="0.969717in" version="1.1" style="shape-rendering:geometricPrecision; text-rendering:geometricPrecision; image-rendering:optimizeQuality; fill-rule:evenodd; clip-rule:evenodd"
viewBox="0 0 1329 709"
 xmlns:xlink="http://www.w3.org/1999/xlink">
 <defs>
  <style type="text/css">
   <![CDATA[
    .fil0 {fill:#9B63BC}
   ]]>
  </style>
 </defs>
 <g id="Слой_x0020_1">
  <metadata id="CorelCorpID_0Corel-Layer"/>
  <path class="fil0" d="M144 50c120,-2 243,-1 364,-1 444,1 410,-41 411,141l-2 370c-1,89 3,99 -82,99 -123,0 -247,1 -370,0 -457,-3 -414,40 -413,-141 0,-62 -1,-124 -1,-186 2,-270 -28,-280 93,-282zm1133 516l-3 54 -78 -35 -225 -96 0 -271 306 -128 0 476zm-1275 -464l-2 28 0 39 0 28 0 38 0 28 0 38 0 28 0 39 0 27 0 39 0 27 0 40 1 27 0 39c2,58 -2,89 34,119 38,31 78,21 136,22 106,0 212,-1 318,0 105,0 212,0 317,0 63,-1 93,11 131,-27 42,-41 28,-65 33,-129 46,-6 321,151 350,127 12,-8 8,-104 8,-145l0 -40 0 -26 0 -40 0 -27 0 -38 0 -28 0 -39 0 -28 0 -38 0 -28 0 -39 0 -28 0 -38 0 -28 0 -22c1,-16 -6,-25 -19,-23 -59,8 -305,122 -339,132 -1,-79 10,-149 -109,-155l-28 0 -39 0 -28 -1 -38 0 -28 0 -38 0 -28 0 -39 0 -28 0 -38 0 -29 0 -37 0 -29 0 -38 0 -29 0 -37 0 -29 0 -38 0 -29 0 -37 0 -28 0 -39 1 -28 1c-63,1 -99,36 -100,100z"/>
 </g>
</svg>
